<?xml version="1.0" standalone="no"?><!DOCTYPE svg PUBLIC "-//W3C//DTD SVG 1.1//EN" "http://www.w3.org/Graphics/SVG/1.1/DTD/svg11.dtd"><svg t="1603788088719" class="icon" viewBox="0 0 1024 1024" version="1.1" xmlns="http://www.w3.org/2000/svg" p-id="1406" xmlns:xlink="http://www.w3.org/1999/xlink" width="200" height="200"><defs><style type="text/css"></style></defs><path d="M830 210.7c-102.2 44.5-195.4 103.1-282.4 173.5 33.2 18.2 58.7 43.4 81.4 71.7 22.6 28.1 41.6 58.6 59.6 91.9-3.5-2-5.3-3.1-7.1-4.3-37.4-24.2-75.6-46.9-116-65.5-26.8-12.5-54.4-23.3-83.8-27.9-5.1-0.8-8.7 0-12.3 3.8-24.4 26.3-50 51.5-73.4 78.6-99.2 115.2-172 245.7-220 390-0.6 2-1.1 4.1-1.7 6.7h531.5c21.4 0 42-4.3 61.6-12.9 42.1-18.2 73.6-48.8 98.5-86.5 41.7-63.3 60.7-134 61.3-208.8 1.3-173.3 0.5-346.6 0.5-519.7 0-1.7-0.2-3.5-0.5-5.4H390.5c-29.2 0-58.2 2.4-86.9 8.7-114.8 25-197.9 120.4-206.1 237.3-1.6 22.2-1.3 44.7-1.4 67.1-0.1 143.8 0 287.6 0 431.5v6.5c2.4-1.8 3.4-3.6 4.3-5.3 26.6-45.1 52.3-90.7 80-135.2 27.7-44.5 58.9-86.7 91.8-127.5 2.8-3.4 3.1-5.9 0.5-9.4-4.2-5.4-7.8-11.3-12-16.6-36-45.9-82-78.6-134.1-103.4-7-3.4-14.1-6.4-21.5-9.7 0.8-0.5 1.1-0.7 1.4-0.7 38.5-3.2 76.8-2.6 114.6 6 42.7 9.9 80.9 27.9 110.3 61.7 0.4 0.4 1 0.5 1.7 0.8 2.2-2.3 4.2-4.4 6.3-6.6 46.1-49.8 95.7-95.7 150-136.6 85.1-64.1 177.7-113 281.1-140.1 19.4-5.3 39.5-9.2 59.5-13.7z" p-id="1407"></path></svg>